# xmcd
#
# Track frame offsets: 
#        150
#        13673
#        44474
#        55523
#        76192
#        92995
#        117031
#        126324
#        152017
#        176584
#        199565
#        219478
#        235360
#        259812
#        278498
#        296610
#
# Disc length: 4270 seconds
#
# Revision: 4
# Processed by: cddbd v1.5.2PL0 Copyright (c) Steve Scherf et al.
# Submitted via: ExactAudioCopyFreeDBPlugin 1.0
#
DISCID=d910ac10
DTITLE=John Lee Hooker - Hooker [box set]
DYEAR=2006
DGENRE=Blues
TTITLE0=One Bourbon, One Scotch, One Beer
TTITLE1=Let's Go Out Tonight
TTITLE2=Bottle Up and Go
TTITLE3=Let's Make It (live)
TTITLE4=King of the World (live)
TTITLE5=I'm Bad Like Jesse James (live)
TTITLE6=Think Twice Before You Go
TTITLE7=Mean Mean Woman
TTITLE8=Burning Hell (John Lee Hooker and Canned Heat)
TTITLE9=Peavine (John Lee Hooker and Canned Heat)
TTITLE10=I Got My Eyes on You (John Lee Hooker and Canned Heat)
TTITLE11=Doin' the Shout
TTITLE12=Bluebird
TTITLE13=Early One Morning
TTITLE14=We'll Meet Again
TTITLE15=Loving People
EXTD=
EXTT0=
EXTT1=
EXTT2=
EXTT3=
EXTT4=
EXTT5=
EXTT6=
EXTT7=
EXTT8=
EXTT9=
EXTT10=
EXTT11=
EXTT12=
EXTT13=
EXTT14=
EXTT15=
PLAYORDER=
